<?xml version="1.0" encoding="UTF-8" standalone="no"?>
<!DOCTYPE svg PUBLIC "-//W3C//DTD SVG 1.1//EN" "http://www.w3.org/Graphics/SVG/1.1/DTD/svg11.dtd">
<!-- Generated by graphviz version 2.40.1 (20161225.0304)
 -->
<!-- Title: %0 Pages: 1 -->
<svg width="364pt" height="620pt" viewBox="0.00 0.00 363.57 620.00" xmlns="http://www.w3.org/2000/svg" xmlns:xlink="http://www.w3.org/1999/xlink">
<g id="graph0" class="graph" transform="scale(1 1) rotate(0) translate(4 616)">
<title>%0</title>
<polygon fill="#ffffff" stroke="transparent" points="-4,4 -4,-616 359.5688,-616 359.5688,4 -4,4"/>
<!-- 1 -->
<g id="node1" class="node">
<title>1</title>
<ellipse fill="none" stroke="#000000" cx="209.2509" cy="-594" rx="71.7892" ry="18"/>
<text text-anchor="middle" x="209.2509" y="-589.8" font-family="Times,serif" font-size="14.00" fill="#000000">lapin VS caprin</text>
</g>
<!-- 2 -->
<g id="node2" class="node">
<title>2</title>
<ellipse fill="none" stroke="#000000" cx="209.2509" cy="-522" rx="61.975" ry="18"/>
<text text-anchor="middle" x="209.2509" y="-517.8" font-family="Times,serif" font-size="14.00" fill="#000000">lapi VS capri</text>
</g>
<!-- 1&#45;&gt;2 -->
<g id="edge1" class="edge">
<title>1-&gt;2</title>
<path fill="none" stroke="#000000" d="M209.2509,-575.8314C209.2509,-568.131 209.2509,-558.9743 209.2509,-550.4166"/>
<polygon fill="#000000" stroke="#000000" points="212.751,-550.4132 209.2509,-540.4133 205.751,-550.4133 212.751,-550.4132"/>
</g>
<!-- 3 -->
<g id="node3" class="node">
<title>3</title>
<ellipse fill="none" stroke="#000000" cx="209.2509" cy="-450" rx="56.7406" ry="18"/>
<text text-anchor="middle" x="209.2509" y="-445.8" font-family="Times,serif" font-size="14.00" fill="#000000">lap VS capr</text>
</g>
<!-- 2&#45;&gt;3 -->
<g id="edge2" class="edge">
<title>2-&gt;3</title>
<path fill="none" stroke="#000000" d="M209.2509,-503.8314C209.2509,-496.131 209.2509,-486.9743 209.2509,-478.4166"/>
<polygon fill="#000000" stroke="#000000" points="212.751,-478.4132 209.2509,-468.4133 205.751,-478.4133 212.751,-478.4132"/>
</g>
<!-- 4 -->
<g id="node4" class="node">
<title>4</title>
<ellipse fill="none" stroke="#000000" cx="148.2509" cy="-378" rx="51.5843" ry="18"/>
<text text-anchor="middle" x="148.2509" y="-373.8" font-family="Times,serif" font-size="14.00" fill="#000000">la VS capr</text>
</g>
<!-- 3&#45;&gt;4 -->
<g id="edge3" class="edge">
<title>3-&gt;4</title>
<path fill="none" stroke="#000000" d="M194.4845,-432.5708C186.9918,-423.7269 177.7545,-412.8239 169.5115,-403.0945"/>
<polygon fill="#000000" stroke="#000000" points="172.016,-400.6361 162.8813,-395.2687 166.6751,-405.161 172.016,-400.6361"/>
</g>
<!-- 5 -->
<g id="node5" class="node">
<title>5</title>
<ellipse fill="none" stroke="#000000" cx="271.2509" cy="-378" rx="53.3109" ry="18"/>
<text text-anchor="middle" x="271.2509" y="-373.8" font-family="Times,serif" font-size="14.00" fill="#000000">lap VS cap</text>
</g>
<!-- 3&#45;&gt;5 -->
<g id="edge4" class="edge">
<title>3-&gt;5</title>
<path fill="none" stroke="#000000" d="M224.2594,-432.5708C231.819,-423.7919 241.1257,-412.9841 249.4568,-403.3093"/>
<polygon fill="#000000" stroke="#000000" points="252.2927,-405.3798 256.1658,-395.5182 246.9883,-400.8121 252.2927,-405.3798"/>
</g>
<!-- 6 -->
<g id="node6" class="node">
<title>6</title>
<ellipse fill="none" stroke="#000000" cx="65.2509" cy="-306" rx="47.51" ry="18"/>
<text text-anchor="middle" x="65.2509" y="-301.8" font-family="Times,serif" font-size="14.00" fill="#000000">l VS capr</text>
</g>
<!-- 4&#45;&gt;6 -->
<g id="edge5" class="edge">
<title>4-&gt;6</title>
<path fill="none" stroke="#000000" d="M128.5811,-360.937C117.7531,-351.5441 104.1533,-339.7467 92.3348,-329.4944"/>
<polygon fill="#000000" stroke="#000000" points="94.3406,-326.6011 84.4932,-322.6921 89.7537,-331.8888 94.3406,-326.6011"/>
</g>
<!-- 7 -->
<g id="node7" class="node">
<title>7</title>
<ellipse fill="none" stroke="#000000" cx="179.2509" cy="-306" rx="48.654" ry="18"/>
<text text-anchor="middle" x="179.2509" y="-301.8" font-family="Times,serif" font-size="14.00" fill="#000000">la VS cap</text>
</g>
<!-- 4&#45;&gt;7 -->
<g id="edge6" class="edge">
<title>4-&gt;7</title>
<path fill="none" stroke="#000000" d="M156.0735,-359.8314C159.551,-351.7547 163.7182,-342.0761 167.5541,-333.1668"/>
<polygon fill="#000000" stroke="#000000" points="170.7983,-334.4824 171.5382,-323.9134 164.3689,-331.7141 170.7983,-334.4824"/>
</g>
<!-- 16 -->
<g id="node16" class="node">
<title>16</title>
<ellipse fill="#90ee90" stroke="#000000" cx="271.2509" cy="-234" rx="43.9983" ry="18"/>
<text text-anchor="middle" x="271.2509" y="-229.8" font-family="Times,serif" font-size="14.00" fill="#000000">la VS ca</text>
</g>
<!-- 5&#45;&gt;16 -->
<g id="edge15" class="edge">
<title>5-&gt;16</title>
<path fill="none" stroke="#000000" d="M271.2509,-359.7623C271.2509,-335.201 271.2509,-291.2474 271.2509,-262.3541"/>
<polygon fill="#000000" stroke="#000000" points="274.751,-262.0896 271.2509,-252.0896 267.751,-262.0897 274.751,-262.0896"/>
</g>
<!-- 8 -->
<g id="node8" class="node">
<title>8</title>
<ellipse fill="none" stroke="#000000" cx="51.2509" cy="-234" rx="51.003" ry="18"/>
<text text-anchor="middle" x="51.2509" y="-229.8" font-family="Times,serif" font-size="14.00" fill="#000000">'' VS capr</text>
</g>
<!-- 6&#45;&gt;8 -->
<g id="edge7" class="edge">
<title>6-&gt;8</title>
<path fill="none" stroke="#000000" d="M61.7181,-287.8314C60.2208,-280.131 58.4404,-270.9743 56.7764,-262.4166"/>
<polygon fill="#000000" stroke="#000000" points="60.1757,-261.5614 54.8313,-252.4133 53.3044,-262.8975 60.1757,-261.5614"/>
</g>
<!-- 9 -->
<g id="node9" class="node">
<title>9</title>
<ellipse fill="#90ee90" stroke="#000000" cx="165.2509" cy="-234" rx="44.0814" ry="18"/>
<text text-anchor="middle" x="165.2509" y="-229.8" font-family="Times,serif" font-size="14.00" fill="#000000">l VS cap</text>
</g>
<!-- 6&#45;&gt;9 -->
<g id="edge8" class="edge">
<title>6-&gt;9</title>
<path fill="none" stroke="#000000" d="M87.4442,-290.0209C101.5236,-279.8836 119.9164,-266.6409 135.284,-255.5762"/>
<polygon fill="#000000" stroke="#000000" points="137.3935,-258.3702 143.4638,-249.6867 133.3033,-252.6895 137.3935,-258.3702"/>
</g>
<!-- 7&#45;&gt;9 -->
<g id="edge17" class="edge">
<title>7-&gt;9</title>
<path fill="none" stroke="#000000" d="M175.7181,-287.8314C174.2208,-280.131 172.4404,-270.9743 170.7764,-262.4166"/>
<polygon fill="#000000" stroke="#000000" points="174.1757,-261.5614 168.8313,-252.4133 167.3044,-262.8975 174.1757,-261.5614"/>
</g>
<!-- 7&#45;&gt;16 -->
<g id="edge18" class="edge">
<title>7-&gt;16</title>
<path fill="none" stroke="#000000" d="M200.1271,-289.6621C212.6835,-279.8354 228.8425,-267.1892 242.5843,-256.4348"/>
<polygon fill="#000000" stroke="#000000" points="245.0562,-258.9446 250.7742,-250.0252 240.7421,-253.4321 245.0562,-258.9446"/>
</g>
<!-- 10 -->
<g id="node10" class="node">
<title>10</title>
<ellipse fill="none" stroke="#000000" cx="85.2509" cy="-162" rx="48.0723" ry="18"/>
<text text-anchor="middle" x="85.2509" y="-157.8" font-family="Times,serif" font-size="14.00" fill="#000000">'' VS cap</text>
</g>
<!-- 9&#45;&gt;10 -->
<g id="edge9" class="edge">
<title>9-&gt;10</title>
<path fill="none" stroke="#000000" d="M146.6962,-217.3008C136.2703,-207.9175 123.0847,-196.0504 111.6035,-185.7173"/>
<polygon fill="#000000" stroke="#000000" points="113.7565,-182.9462 103.9821,-178.8581 109.0737,-188.1493 113.7565,-182.9462"/>
</g>
<!-- 11 -->
<g id="node11" class="node">
<title>11</title>
<ellipse fill="none" stroke="#000000" cx="190.2509" cy="-162" rx="39.4235" ry="18"/>
<text text-anchor="middle" x="190.2509" y="-157.8" font-family="Times,serif" font-size="14.00" fill="#000000">l VS ca</text>
</g>
<!-- 9&#45;&gt;11 -->
<g id="edge10" class="edge">
<title>9-&gt;11</title>
<path fill="none" stroke="#000000" d="M171.5595,-215.8314C174.334,-207.8406 177.6531,-198.2819 180.7192,-189.4514"/>
<polygon fill="#000000" stroke="#000000" points="184.0572,-190.5082 184.031,-179.9134 177.4444,-188.2121 184.0572,-190.5082"/>
</g>
<!-- 12 -->
<g id="node12" class="node">
<title>12</title>
<ellipse fill="none" stroke="#000000" cx="175.2509" cy="-90" rx="43.4163" ry="18"/>
<text text-anchor="middle" x="175.2509" y="-85.8" font-family="Times,serif" font-size="14.00" fill="#000000">'' VS ca</text>
</g>
<!-- 11&#45;&gt;12 -->
<g id="edge11" class="edge">
<title>11-&gt;12</title>
<path fill="none" stroke="#000000" d="M186.4658,-143.8314C184.8615,-136.131 182.9539,-126.9743 181.1711,-118.4166"/>
<polygon fill="#000000" stroke="#000000" points="184.5531,-117.4892 179.087,-108.4133 177.7002,-118.9169 184.5531,-117.4892"/>
</g>
<!-- 13 -->
<g id="node13" class="node">
<title>13</title>
<ellipse fill="#90ee90" stroke="#000000" cx="271.2509" cy="-90" rx="35.3509" ry="18"/>
<text text-anchor="middle" x="271.2509" y="-85.8" font-family="Times,serif" font-size="14.00" fill="#000000">l VS c</text>
</g>
<!-- 11&#45;&gt;13 -->
<g id="edge12" class="edge">
<title>11-&gt;13</title>
<path fill="none" stroke="#000000" d="M208.6311,-145.6621C219.6584,-135.86 233.8418,-123.2526 245.9208,-112.5157"/>
<polygon fill="#000000" stroke="#000000" points="248.3513,-115.0381 253.5002,-105.7784 243.7008,-109.8062 248.3513,-115.0381"/>
</g>
<!-- 14 -->
<g id="node14" class="node">
<title>14</title>
<ellipse fill="none" stroke="#000000" cx="224.2509" cy="-18" rx="38.842" ry="18"/>
<text text-anchor="middle" x="224.2509" y="-13.8" font-family="Times,serif" font-size="14.00" fill="#000000">'' VS c</text>
</g>
<!-- 13&#45;&gt;14 -->
<g id="edge13" class="edge">
<title>13-&gt;14</title>
<path fill="none" stroke="#000000" d="M259.8735,-72.5708C254.2159,-63.9038 247.2673,-53.2592 241.014,-43.6796"/>
<polygon fill="#000000" stroke="#000000" points="243.9206,-41.7293 235.5235,-35.2687 238.059,-45.5557 243.9206,-41.7293"/>
</g>
<!-- 15 -->
<g id="node15" class="node">
<title>15</title>
<ellipse fill="none" stroke="#000000" cx="318.2509" cy="-18" rx="37.1367" ry="18"/>
<text text-anchor="middle" x="318.2509" y="-13.8" font-family="Times,serif" font-size="14.00" fill="#000000">l VS ''</text>
</g>
<!-- 13&#45;&gt;15 -->
<g id="edge14" class="edge">
<title>13-&gt;15</title>
<path fill="none" stroke="#000000" d="M282.6283,-72.5708C288.286,-63.9038 295.2345,-53.2592 301.4879,-43.6796"/>
<polygon fill="#000000" stroke="#000000" points="304.4429,-45.5557 306.9783,-35.2687 298.5812,-41.7293 304.4429,-45.5557"/>
</g>
<!-- 16&#45;&gt;13 -->
<g id="edge16" class="edge">
<title>16-&gt;13</title>
<path fill="none" stroke="#000000" d="M271.2509,-215.7623C271.2509,-191.201 271.2509,-147.2474 271.2509,-118.3541"/>
<polygon fill="#000000" stroke="#000000" points="274.751,-118.0896 271.2509,-108.0896 267.751,-118.0897 274.751,-118.0896"/>
</g>
</g>
</svg>